<svg width="305" height="17" viewBox="0 0 305 17" fill="none" xmlns="http://www.w3.org/2000/svg">
<path opacity="0.8" d="M139.406 17L141.836 16.8553L144.887 16.4211L145.495 15.8422L136.972 15.0463L141.836 15.2633L134.537 14.4674L143.668 14.9739V14.6121L140.626 14.3226C133.322 14.0332 125.406 14.0332 118.71 13.599C121.832 13.5074 124.957 13.4736 128.105 13.4736C134.762 13.4736 141.506 13.6232 148.541 13.6714L150.976 13.5267C141.836 13.0925 131.495 12.8754 124.799 11.9347C125.468 11.9347 126.12 11.9299 126.762 11.9251C139.349 11.9251 148.141 13.1697 160.916 13.1697C161.251 13.1697 161.594 13.1697 161.933 13.1697C155.845 12.5184 146.107 12.0119 140.018 11.3607C149.761 11.9396 158.891 12.6632 168.022 13.3868H169.242C181.414 13.7245 192.372 14.0235 203.334 14.3275C220.979 14.9064 237.422 15.4852 254.469 16.2812L241.076 14.9064C249.6 14.1827 259.338 14.3998 267.253 14.1104L269.684 14.038C259.338 12.8803 245.95 12.4461 235.6 11.5778C242.908 11.7948 248.992 12.4461 257.511 12.5184L255.081 12.229C262.992 12.3737 269.684 12.8079 276.388 13.2421C283.692 12.3014 292.215 11.3607 300.738 11.2883H305L295.869 10.8541L298.911 11.0712L286.127 10.2753L274.561 9.04512L287.949 9.2622L284.304 8.75568C277.608 8.53859 271.519 8.24915 266.65 7.67026L281.258 7.45318L289.781 6.51249L288.566 5.28235C283.393 4.32719 274.962 3.75795 264.819 3.75795C264.22 3.75795 263.608 3.75795 262.996 3.76277L263.599 4.84818L260.562 4.12458L255.085 4.92055L249.604 4.77582C246.562 5.42707 242.6 5.61039 238.342 5.61039C234.085 5.61039 229.516 5.42707 225.254 5.35471L228.908 5.71652C226.962 6.17963 224.62 6.32917 222.168 6.32917C218.479 6.32917 214.543 5.99149 211.254 5.86124L203.999 5.20034C203.77 5.20034 203.559 5.20999 203.343 5.20999L203.611 5.16175L203.343 5.13763L192.993 4.92055L187.516 4.48638L191.17 4.70346L188.128 4.2693L194.217 4.6311L182.039 3.69041L177.778 3.47333L178.997 3.40097L173.516 2.82208L161.951 2.02611L154.031 2.24319L160.736 1.95375L164.386 1.80902L152.208 1.59194L152.816 1.23014C147.942 1.01305 141.854 0.868332 135.765 0.795971H135.162L124.812 1.08541L133.943 0.651251L133.335 0C127.471 0.0578888 121.215 0.443817 114.884 0.443817C113.326 0.443817 111.763 0.419693 110.2 0.361805L111.411 0.506528L102.285 0.57889C97.1117 0.863509 92.0929 1.17707 87.2018 1.50993C69.6096 2.71113 54.0514 4.24035 42.6226 6.22304C51.1457 5.78888 59.6689 5.35471 66.9726 4.70346C77.9391 4.05221 88.91 3.75312 100.33 3.75312C101.589 3.75312 102.844 3.76277 104.107 3.76277L91.3225 4.92055H91.9301L88.888 5.35471L91.3225 4.92055C71.8461 4.92055 57.2343 6.51249 39.5805 6.58485L42.6226 6.22304C32.268 6.65721 21.9267 7.09138 11.5765 7.52554L0.00683882 9.40692L9.74947 9.55165L4.27282 9.91345C3.47157 10.0389 0.337027 10.2367 0.0244524 10.4151C-0.173658 10.5309 0.794881 10.6419 4.29483 10.7191C7.79478 10.7963 13.8217 10.8493 23.7537 10.8493L34.0994 10.7046C22.5342 11.2835 12.184 11.9347 3.66088 13.0201L11.5765 13.599C19.7342 13.2806 28.1825 13.1359 36.6441 13.1359C42.2572 13.1359 47.8791 13.2035 53.435 13.3241C70.1203 13.7003 86.2465 14.6121 99.8413 15.9146C104.71 16.3488 112.018 16.5658 119.318 16.7106H120.537L116.883 16.3487L122.36 16.6382L113.837 15.4804L124.794 16.4935L126.621 16.3487L117.482 15.6251L127.836 16.2764L130.275 15.9869L139.406 17ZM49.9131 9.98099L52.3476 9.90863L54.7822 9.76391L57.2211 9.69154L59.528 9.55647C59.6117 9.55647 59.6909 9.54682 59.7657 9.54682L62.0902 9.47929L64.5248 9.33456L66.9594 9.2622L69.3983 9.11748L71.8329 8.97276L73.6599 8.90039L76.0944 8.75568L78.5334 8.61096L80.9636 8.46623L82.795 8.32151L85.2295 8.17679L87.0521 7.9597C77.6793 8.15267 69.6669 8.67366 61.738 9.20913L60.8796 9.2622L60.228 9.31526C59.2595 9.3828 58.2821 9.44552 57.3092 9.51305L56.6136 9.55165L54.1834 9.69637L52.8275 9.8025C51.8589 9.86521 50.8992 9.9231 49.9219 9.98581M9.74507 9.55165C10.8017 9.55647 11.8803 9.56129 12.9721 9.57094C13.7117 9.56612 14.4689 9.56129 15.2217 9.55165H17.6607L20.0908 9.47929L23.1417 9.40692L24.5989 9.32009C25.9197 9.2622 27.2404 9.19467 28.5656 9.11748H28.6184L31.0529 8.96793L28.6184 9.11265H28.5964C29.4152 9.06441 30.2297 9.01617 31.0529 8.96793C30.0668 9.04029 28.9882 9.08854 27.892 9.13196L26.175 9.18502L23.1373 9.25738L22.1776 9.28632C21.2399 9.30079 20.2889 9.31526 19.3336 9.32974H17.6607L15.9217 9.3828C13.7777 9.42139 11.6821 9.46482 9.74507 9.54682M263.591 4.84336V5.06044L266.029 5.27753L263.591 4.84336Z" fill="#BAC3B0"/>
</svg>
