<svg width="363" height="46" viewBox="0 0 363 46" fill="none" xmlns="http://www.w3.org/2000/svg">
<g opacity="0.8">
<path d="M7.35507 17.2073C5.5163 14.8413 4.13639 12.3677 3.21867 9.78655L0 8.17334L6.89621 9.46391C19.312 10.9696 34.9432 11.6148 45.0581 14.0884C42.0689 13.8733 38.5044 13.8447 35.1128 13.8447C33.9889 13.8447 32.8717 13.8447 31.8077 13.8447C29.683 13.8447 27.7444 13.8303 26.2116 13.7586L27.1293 13.5435L20.2331 15.0492L7.36172 17.2001" fill="#BAC3B0"/>
<path d="M208.313 10.8405L208.017 10.7904L209.653 10.2168C216.09 9.57148 222.524 8.9262 228.503 7.95828C235.781 7.06205 243.379 6.61035 251.299 6.61035C252.882 6.62469 254.478 6.6462 256.091 6.66054L246.435 8.3813C246.119 8.3813 245.803 8.3813 245.49 8.3813C231.854 8.3813 220.695 10.5753 208.309 10.8405" fill="#BAC3B0"/>
<path d="M255.173 1.8283C262.525 1.07547 270.345 0.537736 278.163 0V0.967929C273.833 1.14 269.225 1.63472 264.553 1.63472C263.27 1.63472 261.979 1.59887 260.693 1.50566L261.61 1.72076L255.173 1.8283Z" fill="#9EAB8F"/>
<path d="M271.722 2.58132L278.621 1.93604L279.539 2.15113L271.722 2.58132Z" fill="#9EAB8F"/>
<path d="M206.437 29.8983L204.599 29.5757L206.896 29.7908L206.437 29.8983Z" fill="#9EAB8F"/>
<path d="M277.241 38.5021L274.026 37.9644L277.241 38.5021Z" fill="#9EAB8F"/>
<path d="M319.081 7.63588L316.783 7.09814L319.081 7.63588Z" fill="#9EAB8F"/>
<path d="M291.034 36.136L290.113 35.9209L291.034 36.136Z" fill="#9EAB8F"/>
<path d="M120.102 5.36314L114.941 4.08691L120.102 5.36314Z" fill="#9EAB8F"/>
<path d="M204.599 29.5757L200.921 28.7153L204.599 29.5757Z" fill="#9EAB8F"/>
<path d="M313.102 5.26991L309.887 4.94727L312.647 5.16236L313.102 5.26991Z" fill="#9EAB8F"/>
<path d="M323.221 8.28103L319.081 7.63574L321.841 7.95839L323.221 8.28103Z" fill="#9EAB8F"/>
<path d="M293.794 4.40932L298.851 3.87158L299.772 3.97913L298.851 3.87158L299.772 3.97913V4.08668L293.794 4.40932Z" fill="#9EAB8F"/>
<path d="M319.081 6.34545L313.099 5.26997L309.884 4.94733L312.644 5.16243C306.668 4.1945 300.228 3.33412 293.332 2.79639L292.414 3.33412L301.611 3.65677L298.851 3.87186L299.772 3.97941L301.611 4.08696H299.772L308.969 5.16243L305.289 4.40959L309.887 5.16243H308.969L313.102 6.0228L319.084 6.34545" fill="#9EAB8F"/>
<path d="M312.647 5.16236L309.887 4.94727L312.647 5.16236Z" fill="#8A9979"/>
<path d="M299.772 3.97913L298.851 3.87158L299.772 3.97913Z" fill="#8A9979"/>
<path d="M330.117 8.49605L327.816 8.28095L324.601 7.95831L314.945 6.45265L313.102 6.02246L319.081 6.34511L330.117 8.49605Z" fill="#9EAB8F"/>
<path d="M301.611 4.08704H299.772V3.97949L301.611 4.08704Z" fill="#9EAB8F"/>
<path d="M331.038 8.60389L329.232 8.53219L327.816 8.28125L330.117 8.49635L331.038 8.60389Z" fill="#9EAB8F"/>
<path d="M329.658 8.60392L329.232 8.53223L329.658 8.60392Z" fill="#9EAB8F"/>
<path d="M328.428 8.49635L323.221 8.28125H325.977L328.428 8.49635Z" fill="#9EAB8F"/>
<path d="M299.772 3.97913L298.851 3.87158L299.772 3.97913Z" fill="#8A9979"/>
<path d="M329.658 8.60364L328.428 8.49609L329.658 8.60364Z" fill="#9EAB8F"/>
<path d="M329.232 8.53208L328.428 8.49623L325.977 8.28114L324.601 7.9585L327.816 8.28114L324.601 7.9585L327.816 8.28114L329.232 8.53208Z" fill="#9EAB8F"/>
<path d="M329.658 8.60364L328.428 8.49609L329.232 8.53194L329.658 8.60364Z" fill="#8A9979"/>
<path d="M328.428 8.49635L325.977 8.28125L328.428 8.49635Z" fill="#8A9979"/>
<path d="M327.816 8.28114L324.601 7.9585L327.816 8.28114Z" fill="#8A9979"/>
<path d="M325.977 8.28114H323.221L321.841 7.9585L325.977 8.28114Z" fill="#9EAB8F"/>
<path d="M323.221 8.28114L321.841 7.9585L323.221 8.28114Z" fill="#8A9979"/>
<path d="M325.977 8.28091L321.841 7.95827L319.543 7.31299L324.138 7.95827H324.601L325.977 8.28091Z" fill="#9EAB8F"/>
<path d="M325.977 8.28114L321.841 7.9585L325.977 8.28114Z" fill="#8A9979"/>
<path d="M309.887 5.16201H308.969L305.289 4.40918L309.887 5.16201Z" fill="#9EAB8F"/>
<path d="M308.969 5.16201L305.289 4.40918L308.969 5.16201Z" fill="#8A9979"/>
<path d="M314.945 6.45265L312.185 6.13001L313.102 6.02246L314.945 6.45265Z" fill="#9EAB8F"/>
<path d="M324.601 7.9583H324.138L314.945 6.45264L324.601 7.9583Z" fill="#9EAB8F"/>
<path d="M286.898 29.2527L280.001 28.1772L287.819 29.1452L286.898 29.2527Z" fill="#9EAB8F"/>
<path d="M283.679 29.6832L277.241 27.9624L285.514 29.4681L283.679 29.6832Z" fill="#9EAB8F"/>
<path d="M278.621 33.017C272.184 32.9095 266.206 32.8019 261.148 31.834L269.886 32.2642H269.428L278.625 33.017" fill="#9EAB8F"/>
<path d="M278.621 33.017L269.428 32.2642H269.886L278.621 33.017Z" fill="#9EAB8F"/>
<path d="M278.621 33.017L269.428 32.2642L278.621 33.017Z" fill="#8A9979"/>
<path d="M281.84 29.7907L279.539 29.2529L283.679 29.6831L281.84 29.7907Z" fill="#9EAB8F"/>
<path d="M300.69 29.3601L297.93 29.145L300.69 29.3601Z" fill="#9EAB8F"/>
<path d="M359.544 23.1227L357.702 23.0151L359.544 23.1227Z" fill="#9EAB8F"/>
<path d="M362.3 23.4452L359.544 23.1226L362.3 23.4452Z" fill="#9EAB8F"/>
<path d="M299.772 26.4566L297.012 26.2415L294.256 25.5962L299.772 26.2415V26.4566Z" fill="#9EAB8F"/>
<path d="M299.772 26.6719L297.012 26.2417L299.772 26.4568V26.6719Z" fill="#9EAB8F"/>
<path d="M300.69 28.0698L298.392 27.6396L292.876 26.4565L299.772 27.2094L300.69 28.0698Z" fill="#9EAB8F"/>
<path d="M300.69 28.1774L298.392 27.6396L300.69 28.0698V28.1774Z" fill="#9EAB8F"/>
<path d="M301.152 28.4999L294.711 27.3169L298.392 27.6395L300.69 28.1773L301.152 28.4999Z" fill="#9EAB8F"/>
<path d="M299.772 26.2415L294.253 25.5962L297.012 26.2415C291.955 25.9189 285.98 25.8113 280.916 25.2736C283.626 25.08 286.336 25.0083 289.039 25.0083C293.687 25.0083 298.339 25.2019 302.988 25.2736L299.769 26.2415" fill="#C5CCBC"/>
<path d="M299.772 26.2415L294.256 25.5962L299.772 26.2415Z" fill="#93A183"/>
<path d="M305.289 25.0584C298.392 24.4132 290.578 24.0905 285.514 22.6924C286.023 22.6924 286.515 22.6852 287.004 22.6781C296.504 22.6781 303.147 24.5207 312.793 24.5207C313.046 24.5207 313.302 24.5207 313.565 24.5207C308.966 23.5528 301.611 22.8 297.012 21.832C304.371 22.6924 311.267 23.7679 318.163 24.8434L305.289 25.0584Z" fill="#9EAB8F"/>
<path d="M294.256 21.9394L284.6 19.896L288.736 20.3262L294.256 21.9394Z" fill="#9EAB8F"/>
<path d="M271.722 18.4983L270.345 18.3908L269.886 18.2832L271.722 18.4983Z" fill="#9EAB8F"/>
<path d="M280.001 19.5736L277.704 19.251L271.722 18.4982L270.345 18.3906L280.001 19.5736Z" fill="#9EAB8F"/>
<path d="M288.736 20.3267L284.6 19.8965L277.704 19.2512L271.722 18.4983L269.886 18.2833L270.345 18.3908L261.61 16.5625L271.722 16.8851C276.786 18.1757 283.22 19.1436 288.736 20.3267Z" fill="#9EAB8F"/>
<path d="M288.736 20.3262L284.6 19.896L288.736 20.3262Z" fill="#8A9979"/>
<path d="M271.722 18.4983L269.886 18.2832L271.722 18.4983Z" fill="#8A9979"/>
<path d="M277.7 19.2509L271.722 18.498L277.7 19.2509Z" fill="#8A9979"/>
<path d="M277.7 19.2509L271.722 18.498L277.7 19.2509Z" fill="#8A9979"/>
<path d="M268.965 16.1321C263.908 15.8095 259.309 15.3793 255.632 14.5189L266.664 14.1963L265.285 14.8416L268.962 16.1321" fill="#9EAB8F"/>
<path d="M165.057 34.9529L160.92 34.0925L162.297 33.8774L165.057 34.9529Z" fill="#9EAB8F"/>
<path d="M39.0763 36.0283C29.8791 32.5868 22.5241 29.0377 16.5489 25.166L30.3413 25.4887C45.2243 26.2415 60.1074 28.8083 59.9046 32.4649C59.8746 32.9883 59.5355 33.5332 58.8472 34.0924C51.951 34.4151 45.0548 35.2754 39.0763 36.0283Z" fill="#97A487"/>
<path d="M93.7904 34.6303L91.9517 34.2001C95.1703 33.7699 95.6292 32.6945 101.149 32.5869C100.228 33.6624 97.0058 34.0926 93.7904 34.6303Z" fill="#9EAB8F"/>
<path d="M76.3205 35.9207C72.6263 34.4509 67.7484 34.0279 62.6311 34.0279C61.3809 34.0279 60.114 34.0566 58.8472 34.0924C59.5355 33.526 59.8746 32.9811 59.9046 32.4649C60.1074 28.8083 45.2277 26.2487 30.3413 25.4887C41.7363 25.6751 53.1314 25.8185 64.5264 25.883C68.327 25.8902 72.1242 25.9045 75.9248 25.9117C86.9374 25.9117 97.9501 25.8185 108.966 25.5962L107.586 24.6283C104.946 24.5351 102.293 24.4921 99.6425 24.4634C97.0656 24.4562 94.4887 24.4419 91.9383 24.4347C91.1403 24.4347 90.3456 24.4347 89.5543 24.4347C84.8027 24.4347 80.141 24.4275 75.6721 24.2841C71.2131 24.1407 66.9504 23.8683 62.9902 23.3377C69.1582 22.8645 75.5324 22.6494 81.9232 22.6494C86.1627 22.6494 90.4088 22.7426 94.605 22.929C107.207 23.4883 119.387 24.8434 129.655 26.7792C133.332 27.4245 138.852 27.7472 144.365 27.9622L136.551 27.7472L135.63 28.7151L146.204 30.9736L143.447 30.7585L133.332 30.1132L124.135 29.5755C122.236 29.4464 120.338 29.389 118.433 29.389C112.474 29.389 106.382 29.9196 99.7689 30.3283L107.583 30.866C108.88 31.1887 109.501 31.5113 109.624 31.834C110.14 33.2249 101.056 34.4939 94.7081 34.8453L93.7871 34.6302C97.0024 34.0924 100.224 33.6622 101.145 32.5868C95.6259 32.6943 95.1703 33.7698 91.9483 34.2L90.1096 32.9094L83.6722 31.834C86.8909 30.1132 75.8549 30.5434 76.776 29.0377L65.7401 27.9622L59.7649 29.5755C68.041 31.2962 76.776 33.1245 76.3171 35.9207" fill="#B0BAA4"/>
<path d="M59.9046 32.465C60.1074 28.8084 45.2277 26.2488 30.3413 25.4888C45.2243 26.2416 60.1074 28.8084 59.9046 32.465Z" fill="#8B9A79"/>
<path d="M91.9517 34.2001C95.1703 33.7699 95.6292 32.6945 101.149 32.5869C95.6292 32.6945 95.1737 33.7699 91.9517 34.2001Z" fill="#8E9D7D"/>
<path d="M152.644 32.2642L146.207 30.9737L143.45 30.7586L133.336 30.1133L132.877 30.3284L141.612 31.1888L131.959 31.0812C135.637 31.834 140.235 31.9416 144.83 32.1567L152.648 32.2642" fill="#9EAB8F"/>
<path d="M143.447 30.7586L133.332 30.1133L143.447 30.7586Z" fill="#8A9979"/>
<path d="M92.4072 34.8455L91.9517 34.2002L93.7904 34.6304L92.4072 34.8455Z" fill="#9EAB8F"/>
<path d="M49.1945 15.702L48.7323 14.9492L49.1945 15.702Z" fill="#9EAB8F"/>
<path opacity="0.8" d="M97.4712 45.6001C85.5176 42.5888 93.7904 38.3944 92.4071 34.8454L93.7904 34.6303L94.7114 34.8454C101.059 34.4941 110.143 33.225 109.628 31.8341C109.505 31.5114 108.88 31.1888 107.586 30.8661L99.7722 30.3284C106.382 29.9197 112.477 29.3892 118.436 29.3892C120.344 29.3892 122.243 29.4465 124.142 29.5756L133.339 30.1133L132.88 30.3284L124.601 29.8982C129.199 30.9737 135.64 31.0812 141.615 31.1888L131.962 31.0812C135.64 31.8341 140.238 31.9416 144.834 32.1567L143.454 32.6944L148.97 34.8454L138.393 33.3397L134.719 34.4152C138.393 36.2435 142.992 38.502 150.353 40.0076C140.697 38.2869 133.342 35.5982 120.002 34.9529L119.088 35.9209L116.328 35.2756C119.546 37.1039 126.443 37.9643 129.199 39.7926L120.926 38.0718C121.385 39.2548 125.525 40.1152 126.905 41.0831C120.108 39.599 119.117 36.0284 111.171 36.0284C111.051 36.0284 110.931 36.0284 110.808 36.0284C110.622 36.0284 110.432 36.0284 110.249 36.0284C96.098 36.0284 96.1745 40.0507 102.076 43.019L99.3167 42.4812C94.2592 43.1265 98.8578 44.6322 97.4779 45.6001" fill="#BAC3B0"/>
<path d="M109.628 31.8338C109.505 31.5111 108.88 31.1885 107.586 30.8659C108.883 31.1885 109.505 31.5111 109.628 31.8338Z" fill="#9AA78A"/>
<path d="M99.7689 30.3284C106.379 29.9197 112.474 29.3892 118.433 29.3892C112.474 29.3892 106.382 29.9197 99.7689 30.3284Z" fill="#9AA78A"/>
<path d="M141.608 31.1886L131.952 31.0811L141.608 31.1886Z" fill="#919F80"/>
<path d="M132.873 30.3284L133.332 30.1133L132.873 30.3284Z" fill="#919F80"/>
<path opacity="0.8" d="M159.541 28.3924L161.376 28.1773L163.68 27.532L164.139 26.6716L157.702 25.4886L161.376 25.8113L155.863 24.6282L162.759 25.3811V24.8433L160.462 24.4131C154.945 23.983 148.967 23.983 143.909 23.3377C146.267 23.2015 148.628 23.1513 151.005 23.1513C156.033 23.1513 161.127 23.3735 166.44 23.4452L168.279 23.2301C161.376 22.5849 153.565 22.2622 148.508 20.8641C149.013 20.8641 149.505 20.8569 149.991 20.8498C159.497 20.8498 166.137 22.6996 175.787 22.6996C176.04 22.6996 176.299 22.6996 176.555 22.6996C171.956 21.7316 164.601 20.9788 160.003 20.0109C167.361 20.8713 174.257 21.9467 181.153 23.0222H182.075C191.268 23.5241 199.544 23.9686 207.824 24.4203C221.151 25.2807 233.57 26.1411 246.445 27.3241L236.33 25.2807C242.767 24.2052 250.122 24.5279 256.101 24.0977L257.936 23.9901C250.122 22.2694 240.011 21.6241 232.193 20.3335C237.713 20.6562 242.308 21.6241 248.742 21.7316L246.907 21.3015C252.882 21.5165 257.936 22.1618 263 22.8071C268.517 21.409 274.954 20.0109 281.391 19.9033H284.61L277.714 19.2581L280.011 19.5807L270.355 18.3977L261.62 16.5694L271.732 16.892L268.979 16.1392C263.921 15.8165 259.323 15.3864 255.645 14.526L266.678 14.2033L273.115 12.8052L272.197 10.9769C268.29 9.5573 261.923 8.71126 254.262 8.71126C253.81 8.71126 253.348 8.71126 252.885 8.71843L253.341 10.3316L251.047 9.25617L246.91 10.4392L242.77 10.2241C240.473 11.192 237.48 11.4645 234.265 11.4645C231.05 11.4645 227.598 11.192 224.379 11.0845L227.139 11.6222C225.67 12.3105 223.901 12.5328 222.049 12.5328C219.262 12.5328 216.29 12.0309 213.806 11.8373L208.326 10.855C208.153 10.855 207.993 10.8694 207.831 10.8694L208.033 10.7977L207.831 10.7618L200.013 10.4392L195.877 9.7939L198.637 10.1165L196.339 9.47126L200.938 10.009L191.741 8.61088L188.522 8.28824L189.443 8.1807L185.303 7.32032L176.568 6.1373L170.586 6.45994L175.65 6.02975L178.407 5.81466L169.21 5.49202L169.669 4.95428C165.988 4.63164 161.389 4.41654 156.791 4.309H156.335L148.518 4.73918L155.414 4.09391L154.955 3.12598C150.526 3.21201 145.801 3.7856 141.02 3.7856C139.843 3.7856 138.662 3.74975 137.482 3.66371L138.396 3.87881L131.503 3.98636C127.596 4.40938 123.806 4.87541 120.112 5.37013C106.825 7.15541 95.0739 9.42824 86.442 12.375C92.8794 11.7298 99.3167 11.0845 104.833 10.1165C113.116 9.14862 121.402 8.70409 130.027 8.70409C130.978 8.70409 131.926 8.71843 132.88 8.71843L123.224 10.4392H123.683L121.385 11.0845L123.224 10.4392C108.514 10.4392 97.478 12.8052 84.1444 12.9128L86.442 12.375C78.6215 13.0203 70.8108 13.6656 62.9936 14.3109L54.2553 17.1071L61.6137 17.3222L57.4773 17.8599C56.8721 18.0464 54.5047 18.3403 54.2686 18.6056C54.119 18.7777 54.8505 18.9426 57.4939 19.0573C60.1373 19.172 64.6894 19.2509 72.1907 19.2509L80.0047 19.0358C71.2697 19.8962 63.4524 20.8641 57.0151 22.4773L62.9936 23.3377C69.155 22.8645 75.5358 22.6494 81.9266 22.6494C86.166 22.6494 90.4122 22.7497 94.6084 22.929C107.21 23.4882 119.39 24.8433 129.658 26.7792C133.336 27.4245 138.855 27.7471 144.368 27.9622H145.289L142.529 27.4245L146.666 27.8547L140.228 26.1339L148.505 27.6396L149.884 27.4245L142.982 26.349L150.802 27.3169L152.644 26.8867L159.541 28.3924ZM91.9484 17.9603L93.7871 17.8528L95.6259 17.6377L97.468 17.5301L99.2103 17.3294C99.2735 17.3294 99.3334 17.315 99.3899 17.315L101.146 17.2147L102.984 16.9996L104.823 16.892L106.665 16.6769L108.504 16.4618L109.884 16.3543L111.723 16.1392L113.565 15.9241L115.4 15.709L116.783 15.4939L118.622 15.2788L119.999 14.9562C112.92 15.243 106.868 16.0173 100.88 16.8131L100.231 16.892L99.739 16.9709C99.0075 17.0713 98.2693 17.1645 97.5345 17.2648L97.0091 17.3222L95.1737 17.5373L94.1496 17.695C93.418 17.7882 92.6932 17.8743 91.955 17.9675M61.6104 17.3222C62.4084 17.3294 63.223 17.3365 64.0476 17.3509C64.6063 17.3437 65.1782 17.3365 65.7468 17.3222H67.5888L69.4243 17.2147L71.7286 17.1071L72.8292 16.9781C73.8267 16.892 74.8242 16.7916 75.8251 16.6769H75.865L77.7037 16.4547L75.865 16.6698H75.8483C76.4668 16.5981 77.0819 16.5264 77.7037 16.4547C76.9589 16.5622 76.1443 16.6339 75.3163 16.6984L74.0195 16.7773L71.7252 16.8848L71.0004 16.9279C70.2921 16.9494 69.5739 16.9709 68.8524 16.9924H67.5888L66.2754 17.0713C64.6561 17.1286 63.0734 17.1932 61.6104 17.315M253.334 10.3245V10.6471L255.176 10.9698L253.334 10.3245Z" fill="#BAC3B0"/>
<path d="M91.9517 17.9605C94.359 17.7526 96.7863 17.5375 99.2136 17.3296L97.4713 17.5303L95.6292 17.6379L93.7904 17.853L91.9517 17.9605Z" fill="#BAC3B0"/>
<path d="M94.1462 17.688L95.1703 17.5303L97.0058 17.3152L97.5311 17.2578C96.4139 17.4012 95.2834 17.5446 94.1462 17.6952" fill="#BAC3B0"/>
<path d="M99.3932 17.3081C106.645 16.67 113.831 15.9888 119.995 14.9492L118.619 15.2719L116.78 15.487L115.397 15.702L113.561 15.9171L111.719 16.1322L109.88 16.3473L108.501 16.4549L106.662 16.67L104.82 16.8851L102.981 16.9926L101.142 17.2077L99.3865 17.3081" fill="#BAC3B0"/>
<path d="M99.7357 16.9639L100.228 16.885L100.876 16.8062C100.497 16.8563 100.115 16.9065 99.7357 16.9567" fill="#BAC3B0"/>
<path d="M207.817 10.8622L208.02 10.7905L208.316 10.8407C208.143 10.8407 207.984 10.8551 207.821 10.8551" fill="#A0AC91"/>
<path d="M123.217 6.12996L120.102 5.36279L123.217 6.12996Z" fill="#919F80"/>
<path d="M280.001 19.5736L277.7 19.251L280.001 19.5736Z" fill="#919F80"/>
<path d="M271.722 16.8851L261.61 16.5625L271.722 16.8851Z" fill="#919F80"/>
<path d="M255.635 14.5189L266.668 14.1963L255.635 14.5189Z" fill="#919F80"/>
<path d="M91.9517 17.9605L93.7904 17.853L95.6292 17.6379L97.4713 17.5303L99.2136 17.3296L97.4713 17.5303L95.6292 17.6379L93.7904 17.853L91.9517 17.9605Z" fill="#91A081"/>
<path d="M94.1462 17.6878L95.1703 17.5301L97.0058 17.315L97.5311 17.2505L97.0058 17.315L95.1703 17.5301L94.1462 17.6878Z" fill="#91A081"/>
<path d="M99.3932 17.3081L101.149 17.2077L102.988 16.9926L104.826 16.8851L106.665 16.67L108.504 16.4549L109.884 16.3473L111.723 16.1322L113.561 15.9171L115.397 15.702L116.78 15.487L118.619 15.2719L119.995 14.9492L118.619 15.2719L116.78 15.487L115.397 15.702L113.561 15.9171L111.723 16.1322L109.884 16.3473L108.504 16.4549L106.665 16.67L104.826 16.8851L102.988 16.9926L101.149 17.2077L99.3932 17.3081Z" fill="#91A081"/>
<path d="M99.7357 16.9639L100.228 16.885L100.876 16.8062L100.228 16.885L99.7357 16.9639Z" fill="#91A081"/>
<path d="M79.998 19.0359L91.9516 17.9604L79.998 19.0359Z" fill="#91A081"/>
<path d="M79.998 19.0359L91.9516 17.9604L79.998 19.0359Z" fill="#91A081"/>
<path d="M144.365 27.9624C138.848 27.7473 133.332 27.4247 129.655 26.7794C119.384 24.8435 107.204 23.4884 94.605 22.9292C107.207 23.4884 119.387 24.8435 129.655 26.7794C133.332 27.4247 138.852 27.7473 144.365 27.9624Z" fill="#9AA78A"/>
<path d="M62.9869 23.3377C69.1483 22.8645 75.5291 22.6494 81.9199 22.6494C75.5291 22.6494 69.1516 22.8717 62.9869 23.3377Z" fill="#9AA78A"/>
<path d="M67.5855 17.3149H65.7434C68.0543 17.279 70.4251 17.1715 72.8258 16.9707L71.7252 17.0998L69.4209 17.2073L67.5855 17.3149Z" fill="#BAC3B0"/>
<path d="M66.2721 17.0711L67.5855 16.9922H68.849C67.9845 17.0209 67.1266 17.0424 66.2721 17.0711Z" fill="#BAC3B0"/>
<path d="M70.997 16.9282L71.7219 16.8851L74.0162 16.7776L75.313 16.6987C73.9397 16.8063 72.49 16.878 70.997 16.921" fill="#BAC3B0"/>
<path d="M50.5711 15.8092L51.4921 15.7017L50.5711 15.8092Z" fill="#9EAB8F"/>
<path d="M54.2486 17.0998C42.7538 16.6697 31.7212 15.3791 20.2264 15.0564L27.1226 13.5508L26.2049 13.7659C27.7378 13.8376 29.6796 13.8519 31.8077 13.8519C32.8684 13.8519 33.9856 13.8519 35.1095 13.8519C38.5011 13.8519 42.0655 13.8806 45.0548 14.0957L48.7356 14.9561V15.0636L49.1945 15.7089L46.4314 16.3542L50.5744 15.8164L51.4955 15.7089L62.9902 14.3108L54.2519 17.107" fill="#97A487"/>
<path d="M31.8077 13.8521C29.683 13.8521 27.7411 13.8378 26.205 13.7661C27.7378 13.8378 29.6763 13.8521 31.8011 13.8521C32.8684 13.8521 33.9823 13.8521 35.1062 13.8521C33.9823 13.8521 32.8651 13.8521 31.8044 13.8521" fill="#8D9C7C"/>
<path d="M26.205 13.7659L27.1227 13.5508L26.205 13.7659Z" fill="#8D9C7C"/>
<path d="M49.1945 15.702L48.7323 15.0568V14.9492L49.1945 15.702Z" fill="#899877"/>
<path d="M54.2486 17.0999L62.9869 14.3037L54.2486 17.0999Z" fill="#8D9C7C"/>
<path d="M52.2901 24.0405C45.4106 24.0405 36.7022 23.3092 29.4236 22.6926C35.4021 20.5416 45.9758 18.9284 54.2519 17.1001L61.6103 17.3152L57.4739 17.8529C56.8688 18.0393 54.5013 18.3333 54.2652 18.5986C54.1156 18.7707 54.8471 18.9356 57.4906 19.0503C60.134 19.165 64.686 19.2439 72.1874 19.2439L80.0013 19.0288C71.2663 19.8892 63.4491 20.8571 57.0117 22.4703L62.9902 23.3307L59.3094 23.6533C57.8596 23.8541 56.1439 23.9688 54.2453 24.0118C53.6135 24.019 52.9651 24.0261 52.2935 24.0333" fill="#97A487"/>
<path d="M75.9248 25.9117C72.1242 25.9046 68.327 25.8902 64.5264 25.8831C53.1314 25.8185 41.7364 25.6751 30.3413 25.4887C26.8899 25.2449 23.4385 25.1231 19.9937 25.1231C18.8432 25.1374 17.6961 25.1517 16.5489 25.1661C12.868 22.5849 9.64605 20.0038 7.35175 17.2076L20.2231 15.0566C31.7179 15.3793 42.7505 16.6699 54.2453 17.1C45.9692 18.9283 35.3954 20.5416 29.417 22.6925C36.6989 23.3091 45.4072 24.0404 52.2835 24.0404H52.2868C52.9552 24.0332 53.6036 24.0261 54.2353 24.0189C56.1339 23.9759 57.8497 23.8612 59.2994 23.6604L62.9803 23.3378C66.9404 23.8683 71.2032 24.1408 75.6621 24.2842C80.131 24.4276 84.7894 24.4419 89.5443 24.4419C90.3357 24.4419 91.1337 24.4419 91.9284 24.4419C94.482 24.4491 97.059 24.4634 99.6326 24.4706C102.283 24.4993 104.936 24.5423 107.576 24.6355L108.956 25.6034C97.9434 25.8329 86.9308 25.9189 75.9148 25.9189" fill="#A4B097"/>
<path d="M75.9248 25.9117C86.9375 25.9117 97.9501 25.8185 108.966 25.5962C97.9534 25.8185 86.9408 25.9117 75.9248 25.9117Z" fill="#919F80"/>
<path d="M99.6392 24.4633C97.0656 24.4561 94.4887 24.4418 91.935 24.4346C91.1403 24.4346 90.3423 24.4346 89.551 24.4346C84.7994 24.4346 80.1377 24.4274 75.6688 24.2769C80.1377 24.4203 84.7961 24.4274 89.551 24.4274C90.3423 24.4274 91.137 24.4274 91.935 24.4274C94.4887 24.4346 97.0623 24.4489 99.6392 24.4561" fill="#919F80"/>
<path d="M52.2935 24.0415H52.2902C52.9652 24.034 53.6102 24.0265 54.242 24.019C53.6102 24.0265 52.9618 24.034 52.2935 24.0415Z" fill="#899977"/>
<path d="M30.3413 25.4887L16.5489 25.1661C17.696 25.1517 18.8432 25.1374 19.9937 25.123C23.4384 25.123 26.8899 25.2449 30.3413 25.4887Z" fill="#9EAB8F"/>
<path d="M30.3413 25.4887L16.5489 25.166L30.3413 25.4887Z" fill="#899877"/>
</g>
</svg>
