<svg width="1240" height="64" viewBox="0 0 1240 64" fill="none" xmlns="http://www.w3.org/2000/svg">
<g opacity="0.8">
<path d="M26.6437 24C19.9828 20.7 14.9841 17.25 11.6596 13.65L0 11.4L24.9815 13.2C69.9579 15.3 126.582 16.2 163.223 19.65C152.394 19.35 139.482 19.31 127.196 19.31C123.125 19.31 119.078 19.31 115.223 19.31C107.527 19.31 100.504 19.29 94.9514 19.19L98.2759 18.89L73.2944 20.99L26.6678 23.99" fill="#BAC3B0"/>
<path d="M754.613 15.12L753.541 15.05L759.467 14.25C782.786 13.35 806.093 12.45 827.75 11.1C854.117 9.85001 881.64 9.22 910.332 9.22C916.065 9.24 921.847 9.27 927.689 9.29L892.71 11.69C891.565 11.69 890.421 11.69 889.289 11.69C839.892 11.69 799.469 14.75 754.601 15.12" fill="#BAC3B0"/>
<path d="M924.364 2.55C950.996 1.5 979.326 0.75 1007.64 0V1.35001C991.961 1.59001 975.267 2.28001 958.343 2.28001C953.694 2.28001 949.02 2.23001 944.359 2.10001L947.683 2.4L924.364 2.55Z" fill="#9EAB8F"/>
<path d="M984.313 3.6L1009.31 2.7L1012.63 2.99999L984.313 3.6Z" fill="#9EAB8F"/>
<path d="M747.819 41.7L741.158 41.25L749.482 41.55L747.819 41.7Z" fill="#9EAB8F"/>
<path d="M1004.31 53.7L992.66 52.95L1004.31 53.7Z" fill="#9EAB8F"/>
<path d="M1155.87 10.65L1147.55 9.90001L1155.87 10.65Z" fill="#9EAB8F"/>
<path d="M1054.27 50.4L1050.93 50.1L1054.27 50.4Z" fill="#9EAB8F"/>
<path d="M435.069 7.48L416.375 5.7L435.069 7.48Z" fill="#9EAB8F"/>
<path d="M741.158 41.25L727.837 40.05L741.158 41.25Z" fill="#9EAB8F"/>
<path d="M1134.21 7.35001L1122.57 6.90001L1132.56 7.20001L1134.21 7.35001Z" fill="#9EAB8F"/>
<path d="M1170.87 11.55L1155.87 10.65L1165.87 11.1L1170.87 11.55Z" fill="#9EAB8F"/>
<path d="M1064.27 6.15001L1082.59 5.40001L1085.92 5.55001L1082.59 5.40001L1085.92 5.55001V5.70001L1064.27 6.15001Z" fill="#9EAB8F"/>
<path d="M1155.87 8.85001L1134.2 7.35001L1122.55 6.90001L1132.55 7.20001C1110.91 5.85001 1087.58 4.65001 1062.59 3.90001L1059.27 4.65001L1092.59 5.10001L1082.59 5.40001L1085.92 5.55001L1092.59 5.70001H1085.92L1119.24 7.20001L1105.91 6.15001L1122.57 7.20001H1119.24L1134.21 8.40001L1155.88 8.85001" fill="#9EAB8F"/>
<path d="M1132.56 7.20001L1122.57 6.90001L1132.56 7.20001Z" fill="#8A9979"/>
<path d="M1085.92 5.55001L1082.59 5.40001L1085.92 5.55001Z" fill="#8A9979"/>
<path d="M1195.85 11.85L1187.51 11.55L1175.87 11.1L1140.89 9.00001L1134.21 8.40001L1155.87 8.85001L1195.85 11.85Z" fill="#9EAB8F"/>
<path d="M1092.59 5.7H1085.92V5.55L1092.59 5.7Z" fill="#9EAB8F"/>
<path d="M1199.18 12L1192.64 11.9L1187.51 11.55L1195.85 11.85L1199.18 12Z" fill="#9EAB8F"/>
<path d="M1194.19 12L1192.64 11.9L1194.19 12Z" fill="#9EAB8F"/>
<path d="M1189.73 11.85L1170.87 11.55H1180.85L1189.73 11.85Z" fill="#9EAB8F"/>
<path d="M1085.92 5.55001L1082.59 5.40001L1085.92 5.55001Z" fill="#8A9979"/>
<path d="M1194.19 12L1189.73 11.85L1194.19 12Z" fill="#9EAB8F"/>
<path d="M1192.64 11.9L1189.73 11.85L1180.85 11.55L1175.87 11.1L1187.51 11.55L1175.87 11.1L1187.51 11.55L1192.64 11.9Z" fill="#9EAB8F"/>
<path d="M1194.19 12L1189.73 11.85L1192.64 11.9L1194.19 12Z" fill="#8A9979"/>
<path d="M1189.73 11.85L1180.85 11.55L1189.73 11.85Z" fill="#8A9979"/>
<path d="M1187.51 11.55L1175.87 11.1L1187.51 11.55Z" fill="#8A9979"/>
<path d="M1180.85 11.55H1170.87L1165.87 11.1L1180.85 11.55Z" fill="#9EAB8F"/>
<path d="M1170.87 11.55L1165.87 11.1L1170.87 11.55Z" fill="#8A9979"/>
<path d="M1180.85 11.55L1165.87 11.1L1157.55 10.2L1174.19 11.1H1175.87L1180.85 11.55Z" fill="#9EAB8F"/>
<path d="M1180.85 11.55L1165.87 11.1L1180.85 11.55Z" fill="#8A9979"/>
<path d="M1122.57 7.20001H1119.24L1105.91 6.15001L1122.57 7.20001Z" fill="#9EAB8F"/>
<path d="M1119.24 7.20001L1105.91 6.15001L1119.24 7.20001Z" fill="#8A9979"/>
<path d="M1140.89 9.00001L1130.89 8.55001L1134.21 8.40001L1140.89 9.00001Z" fill="#9EAB8F"/>
<path d="M1175.87 11.1H1174.19L1140.89 9L1175.87 11.1Z" fill="#9EAB8F"/>
<path d="M1039.29 40.8L1014.3 39.3L1042.62 40.65L1039.29 40.8Z" fill="#9EAB8F"/>
<path d="M1027.63 41.4L1004.31 39L1034.28 41.1L1027.63 41.4Z" fill="#9EAB8F"/>
<path d="M1009.31 46.05C985.987 45.9 964.33 45.75 946.009 44.4L977.664 45H976.001L1009.32 46.05" fill="#9EAB8F"/>
<path d="M1009.31 46.05L976.001 45H977.664L1009.31 46.05Z" fill="#9EAB8F"/>
<path d="M1009.31 46.05L976.001 45L1009.31 46.05Z" fill="#8A9979"/>
<path d="M1020.97 41.55L1012.63 40.8L1027.63 41.4L1020.97 41.55Z" fill="#9EAB8F"/>
<path d="M1089.25 40.95L1079.25 40.65L1089.25 40.95Z" fill="#9EAB8F"/>
<path d="M1085.92 36.9L1075.93 36.6L1065.94 35.7L1085.92 36.6V36.9Z" fill="#9EAB8F"/>
<path d="M1085.93 37.2L1075.93 36.6L1085.93 36.9V37.2Z" fill="#9EAB8F"/>
<path d="M1089.25 39.15L1080.93 38.55L1060.94 36.9L1085.92 37.95L1089.25 39.15Z" fill="#9EAB8F"/>
<path d="M1089.25 39.3L1080.93 38.55L1089.25 39.15V39.3Z" fill="#9EAB8F"/>
<path d="M1090.92 39.75L1067.59 38.1L1080.93 38.55L1089.25 39.3L1090.92 39.75Z" fill="#9EAB8F"/>
<path d="M1085.92 36.6L1065.93 35.7L1075.93 36.6C1057.61 36.15 1035.96 36 1017.62 35.25C1027.43 34.98 1037.25 34.88 1047.04 34.88C1063.88 34.88 1080.73 35.15 1097.57 35.25L1085.91 36.6" fill="#C5CCBC"/>
<path d="M1085.92 36.6L1065.94 35.7L1085.92 36.6Z" fill="#93A183"/>
<path d="M1105.91 34.95C1080.93 34.05 1052.62 33.6 1034.28 31.65C1036.12 31.65 1037.9 31.64 1039.67 31.63C1074.08 31.63 1098.15 34.2 1133.09 34.2C1134.01 34.2 1134.94 34.2 1135.89 34.2C1119.23 32.85 1092.59 31.8 1075.93 30.45C1102.58 31.65 1127.56 33.15 1152.55 34.65L1105.91 34.95Z" fill="#9EAB8F"/>
<path d="M1065.94 30.6L1030.96 27.75L1045.95 28.35L1065.94 30.6Z" fill="#9EAB8F"/>
<path d="M984.313 25.8L979.326 25.65L977.664 25.5L984.313 25.8Z" fill="#9EAB8F"/>
<path d="M1014.3 27.3L1005.98 26.85L984.313 25.8L979.326 25.65L1014.3 27.3Z" fill="#9EAB8F"/>
<path d="M1045.95 28.35L1030.96 27.75L1005.98 26.85L984.313 25.8L977.664 25.5L979.326 25.65L947.683 23.1L984.313 23.55C1002.66 25.35 1025.96 26.7 1045.95 28.35Z" fill="#9EAB8F"/>
<path d="M1045.95 28.35L1030.96 27.75L1045.95 28.35Z" fill="#8A9979"/>
<path d="M984.313 25.8L977.664 25.5L984.313 25.8Z" fill="#8A9979"/>
<path d="M1005.97 26.85L984.313 25.8L1005.97 26.85Z" fill="#8A9979"/>
<path d="M1005.97 26.85L984.313 25.8L1005.97 26.85Z" fill="#8A9979"/>
<path d="M974.327 22.5C956.007 22.05 939.348 21.45 926.026 20.25L965.992 19.8L960.993 20.7L974.315 22.5" fill="#9EAB8F"/>
<path d="M597.918 48.75L582.934 47.55L587.921 47.25L597.918 48.75Z" fill="#9EAB8F"/>
<path d="M141.554 50.25C108.237 45.45 81.5934 40.5 59.9484 35.1L109.911 35.55C163.825 36.6 217.739 40.18 217.004 45.28C216.896 46.01 215.667 46.77 213.174 47.55C188.192 48 163.211 49.2 141.554 50.25Z" fill="#97A487"/>
<path d="M339.756 48.3L333.095 47.7C344.754 47.1 346.417 45.6 366.412 45.45C363.075 46.95 351.403 47.55 339.756 48.3Z" fill="#9EAB8F"/>
<path d="M276.471 50.1C263.089 48.05 245.419 47.46 226.881 47.46C222.352 47.46 217.763 47.5 213.174 47.55C215.667 46.76 216.896 46 217.004 45.28C217.739 40.18 163.837 36.61 109.911 35.55C151.19 35.81 192.468 36.01 233.747 36.1C247.515 36.11 261.27 36.13 275.038 36.14C314.931 36.14 354.824 36.01 394.73 35.7L389.731 34.35C380.167 34.22 370.555 34.16 360.955 34.12C351.62 34.11 342.285 34.09 333.047 34.08C330.156 34.08 327.277 34.08 324.41 34.08C307.198 34.08 290.311 34.07 274.122 33.87C257.97 33.67 242.528 33.29 228.182 32.55C250.526 31.89 273.616 31.59 296.767 31.59C312.124 31.59 327.506 31.72 342.707 31.98C388.358 32.76 432.479 34.65 469.674 37.35C482.996 38.25 502.991 38.7 522.962 39L494.656 38.7L491.319 40.05L529.623 43.2L519.637 42.9L482.996 42L449.679 41.25C442.802 41.07 435.924 40.99 429.022 40.99C407.437 40.99 385.371 41.73 361.413 42.3L389.719 43.05C394.416 43.5 396.669 43.95 397.115 44.4C398.982 46.34 366.074 48.11 343.08 48.6L339.744 48.3C351.391 47.55 363.063 46.95 366.4 45.45C346.405 45.6 344.755 47.1 333.083 47.7L326.422 45.9L303.103 44.4C314.762 42 274.785 42.6 278.121 40.5L238.143 39L216.498 41.25C246.479 43.65 278.121 46.2 276.459 50.1" fill="#B0BAA4"/>
<path d="M217.004 45.28C217.739 40.18 163.837 36.61 109.911 35.55C163.825 36.6 217.739 40.18 217.004 45.28Z" fill="#8B9A79"/>
<path d="M333.095 47.7C344.754 47.1 346.417 45.6 366.412 45.45C346.417 45.6 344.767 47.1 333.095 47.7Z" fill="#8E9D7D"/>
<path d="M552.954 45L529.635 43.2L519.649 42.9L483.008 42L481.346 42.3L512.988 43.5L478.021 43.35C491.343 44.4 508.002 44.55 524.648 44.85L552.966 45" fill="#9EAB8F"/>
<path d="M519.637 42.9L482.996 42L519.637 42.9Z" fill="#8A9979"/>
<path d="M334.745 48.6L333.095 47.7L339.756 48.3L334.745 48.6Z" fill="#9EAB8F"/>
<path d="M178.207 21.9L176.533 20.85L178.207 21.9Z" fill="#9EAB8F"/>
<path opacity="0.8" d="M353.09 63.6C309.788 59.4 339.756 53.55 334.745 48.6L339.756 48.3L343.092 48.6C366.086 48.11 398.993 46.34 397.127 44.4C396.681 43.95 394.416 43.5 389.731 43.05L361.425 42.3C385.371 41.73 407.449 40.99 429.034 40.99C435.948 40.99 442.826 41.07 449.703 41.25L483.02 42L481.358 42.3L451.366 41.7C468.024 43.2 491.355 43.35 513 43.5L478.033 43.35C491.355 44.4 508.014 44.55 524.66 44.85L519.661 45.6L539.644 48.6L501.329 46.5L488.019 48C501.329 50.55 517.987 53.7 544.655 55.8C509.676 53.4 483.032 49.65 434.707 48.75L431.395 50.1L421.397 49.2C433.057 51.75 458.039 52.95 468.024 55.5L438.056 53.1C439.718 54.75 454.714 55.95 459.713 57.3C435.093 55.23 431.503 50.25 402.715 50.25C402.282 50.25 401.848 50.25 401.403 50.25C400.728 50.25 400.041 50.25 399.379 50.25C348.115 50.25 348.392 55.86 369.772 60L359.775 59.25C341.454 60.15 358.112 62.25 353.114 63.6" fill="#BAC3B0"/>
<path d="M397.127 44.4C396.681 43.95 394.416 43.5 389.731 43.05C394.428 43.5 396.681 43.95 397.127 44.4Z" fill="#9AA78A"/>
<path d="M361.413 42.3C385.359 41.73 407.437 40.99 429.022 40.99C407.437 40.99 385.371 41.73 361.413 42.3Z" fill="#9AA78A"/>
<path d="M512.976 43.5L477.997 43.35L512.976 43.5Z" fill="#919F80"/>
<path d="M481.334 42.3L482.996 42L481.334 42.3Z" fill="#919F80"/>
<path opacity="0.8" d="M577.935 39.6L584.584 39.3L592.932 38.4L594.594 37.2L571.275 35.55L584.584 36L564.614 34.35L589.595 35.4V34.65L581.272 34.05C561.289 33.45 539.632 33.45 521.311 32.55C529.851 32.36 538.403 32.29 547.016 32.29C565.228 32.29 583.681 32.6 602.929 32.7L609.59 32.4C584.584 31.5 556.29 31.05 537.97 29.1C539.801 29.1 541.583 29.09 543.342 29.08C577.779 29.08 601.833 31.66 636.788 31.66C637.703 31.66 638.643 31.66 639.57 31.66C622.912 30.31 596.268 29.26 579.61 27.91C606.265 29.11 631.247 30.61 656.229 32.11H659.565C692.87 32.81 722.85 33.43 752.842 34.06C801.119 35.26 846.107 36.46 892.746 38.11L856.105 35.26C879.424 33.76 906.068 34.21 927.725 33.61L934.374 33.46C906.068 31.06 869.439 30.16 841.121 28.36C861.115 28.81 877.762 30.16 901.069 30.31L894.42 29.71C916.065 30.01 934.374 30.91 952.718 31.81C972.701 29.86 996.021 27.91 1019.34 27.76H1031L1006.02 26.86L1014.34 27.31L979.362 25.66L947.72 23.11L984.349 23.56L974.375 22.51C956.055 22.06 939.396 21.46 926.075 20.26L966.04 19.81L989.36 17.86L986.035 15.31C971.882 13.33 948.816 12.15 921.064 12.15C919.426 12.15 917.751 12.15 916.077 12.16L917.727 14.41L909.416 12.91L894.432 14.56L879.436 14.26C871.113 15.61 860.272 15.99 848.625 15.99C836.977 15.99 824.474 15.61 812.815 15.46L822.812 16.21C817.488 17.17 811.08 17.48 804.371 17.48C794.277 17.48 783.509 16.78 774.511 16.51L754.661 15.14C754.035 15.14 753.456 15.16 752.866 15.16L753.601 15.06L752.866 15.01L724.548 14.56L709.564 13.66L719.562 14.11L711.238 13.21L727.897 13.96L694.58 12.01L682.92 11.56L686.257 11.41L671.261 10.21L639.618 8.56001L617.949 9.01L636.294 8.41L646.279 8.11L612.963 7.66L614.625 6.91C601.291 6.46 584.632 6.16 567.974 6.01H566.324L538.006 6.61L562.987 5.71001L561.325 4.36C545.281 4.48 528.165 5.28001 510.844 5.28001C506.58 5.28001 502.304 5.23 498.028 5.11L501.341 5.41L476.371 5.56001C462.218 6.15001 448.487 6.80001 435.105 7.49001C386.973 9.98001 344.405 13.15 313.136 17.26C336.456 16.36 359.775 15.46 379.758 14.11C409.762 12.76 439.778 12.14 471.023 12.14C474.468 12.14 477.901 12.16 481.358 12.16L446.379 14.56H448.041L439.718 15.46L446.379 14.56C393.092 14.56 353.114 17.86 304.813 18.01L313.136 17.26C284.806 18.16 256.512 19.06 228.194 19.96L196.54 23.86L223.196 24.16L208.211 24.91C206.019 25.17 197.443 25.58 196.588 25.95C196.046 26.19 198.696 26.42 208.272 26.58C217.848 26.74 234.337 26.85 261.511 26.85L289.817 26.55C258.174 27.75 229.856 29.1 206.537 31.35L228.194 32.55C250.514 31.89 273.628 31.59 296.779 31.59C312.136 31.59 327.518 31.73 342.719 31.98C388.37 32.76 432.491 34.65 469.686 37.35C483.008 38.25 503.003 38.7 522.974 39H526.31L516.313 38.25L531.297 38.85L507.978 36.45L537.958 38.55L542.957 38.25L517.951 36.75L546.281 38.1L552.954 37.5L577.935 39.6ZM333.083 25.05L339.744 24.9L346.405 24.6L353.078 24.45L359.389 24.17C359.618 24.17 359.835 24.15 360.04 24.15L366.4 24.01L373.061 23.71L379.721 23.56L386.394 23.26L393.055 22.96L398.054 22.81L404.715 22.51L411.388 22.21L418.037 21.91L423.048 21.61L429.709 21.31L434.695 20.86C409.051 21.26 387.129 22.34 365.436 23.45L363.087 23.56L361.305 23.67C358.655 23.81 355.981 23.94 353.319 24.08L351.416 24.16L344.767 24.46L341.057 24.68C338.407 24.81 335.781 24.93 333.107 25.06M223.184 24.16C226.074 24.17 229.025 24.18 232.013 24.2C234.036 24.19 236.108 24.18 238.168 24.16H244.841L251.489 24.01L259.837 23.86L263.824 23.68C267.437 23.56 271.051 23.42 274.676 23.26H274.821L281.482 22.95L274.821 23.25H274.761C277.001 23.15 279.229 23.05 281.482 22.95C278.784 23.1 275.833 23.2 272.833 23.29L268.136 23.4L259.825 23.55L257.199 23.61C254.633 23.64 252.031 23.67 249.418 23.7H244.841L240.083 23.81C234.217 23.89 228.483 23.98 223.184 24.15M917.703 14.4V14.85L924.376 15.3L917.703 14.4Z" fill="#BAC3B0"/>
<path d="M333.095 25.05C341.815 24.76 350.608 24.46 359.401 24.17L353.09 24.45L346.417 24.6L339.756 24.9L333.095 25.05Z" fill="#BAC3B0"/>
<path d="M341.045 24.67L344.755 24.45L351.403 24.15L353.307 24.07C349.259 24.27 345.164 24.47 341.045 24.68" fill="#BAC3B0"/>
<path d="M360.052 24.14C386.322 23.25 412.352 22.3 434.683 20.85L429.696 21.3L423.036 21.6L418.025 21.9L411.376 22.2L404.703 22.5L398.042 22.8L393.043 22.95L386.382 23.25L379.709 23.55L373.048 23.7L366.387 24L360.028 24.14" fill="#BAC3B0"/>
<path d="M361.292 23.66L363.075 23.55L365.424 23.44C364.051 23.51 362.666 23.58 361.292 23.65" fill="#BAC3B0"/>
<path d="M752.818 15.15L753.553 15.05L754.625 15.12C753.998 15.12 753.42 15.14 752.83 15.14" fill="#A0AC91"/>
<path d="M446.355 8.55L435.069 7.48L446.355 8.55Z" fill="#919F80"/>
<path d="M1014.3 27.3L1005.97 26.85L1014.3 27.3Z" fill="#919F80"/>
<path d="M984.313 23.55L947.683 23.1L984.313 23.55Z" fill="#919F80"/>
<path d="M926.038 20.25L966.004 19.8L926.038 20.25Z" fill="#919F80"/>
<path d="M333.095 25.05L339.756 24.9L346.417 24.6L353.09 24.45L359.401 24.17L353.09 24.45L346.417 24.6L339.756 24.9L333.095 25.05Z" fill="#91A081"/>
<path d="M341.045 24.67L344.755 24.45L351.403 24.15L353.307 24.06L351.403 24.15L344.755 24.45L341.045 24.67Z" fill="#91A081"/>
<path d="M360.052 24.14L366.412 24L373.072 23.7L379.733 23.55L386.394 23.25L393.055 22.95L398.054 22.8L404.715 22.5L411.376 22.2L418.025 21.9L423.035 21.6L429.696 21.3L434.683 20.85L429.696 21.3L423.035 21.6L418.025 21.9L411.376 22.2L404.715 22.5L398.054 22.8L393.055 22.95L386.394 23.25L379.733 23.55L373.072 23.7L366.412 24L360.052 24.14Z" fill="#91A081"/>
<path d="M361.292 23.66L363.075 23.55L365.424 23.44L363.075 23.55L361.292 23.66Z" fill="#91A081"/>
<path d="M289.793 26.55L333.095 25.05L289.793 26.55Z" fill="#91A081"/>
<path d="M289.793 26.55L333.095 25.05L289.793 26.55Z" fill="#91A081"/>
<path d="M522.962 39C502.979 38.7 482.996 38.25 469.674 37.35C432.467 34.65 388.346 32.76 342.707 31.98C388.358 32.76 432.479 34.65 469.674 37.35C482.996 38.25 502.991 38.7 522.962 39Z" fill="#9AA78A"/>
<path d="M228.17 32.55C250.49 31.89 273.604 31.59 296.755 31.59C273.604 31.59 250.502 31.9 228.17 32.55Z" fill="#9AA78A"/>
<path d="M244.828 24.15H238.155C246.527 24.1 255.115 23.95 263.811 23.67L259.825 23.85L251.477 24L244.828 24.15Z" fill="#BAC3B0"/>
<path d="M240.071 23.81L244.828 23.7H249.406C246.274 23.74 243.166 23.77 240.071 23.81Z" fill="#BAC3B0"/>
<path d="M257.187 23.61L259.813 23.55L268.124 23.4L272.821 23.29C267.847 23.44 262.595 23.54 257.187 23.6" fill="#BAC3B0"/>
<path d="M183.194 22.05L186.53 21.9L183.194 22.05Z" fill="#9EAB8F"/>
<path d="M196.516 23.85C154.876 23.25 114.91 21.45 73.2703 21L98.2518 18.9L94.9273 19.2C100.48 19.3 107.514 19.32 115.223 19.32C119.066 19.32 123.113 19.32 127.184 19.32C139.47 19.32 152.382 19.36 163.211 19.66L176.545 20.86V21.01L178.207 21.91L168.198 22.81L183.206 22.06L186.542 21.91L228.182 19.96L196.528 23.86" fill="#97A487"/>
<path d="M115.223 19.32C107.527 19.32 100.492 19.3 94.9274 19.2C100.48 19.3 107.502 19.32 115.199 19.32C119.066 19.32 123.101 19.32 127.172 19.32C123.101 19.32 119.054 19.32 115.211 19.32" fill="#8D9C7C"/>
<path d="M94.9274 19.2L98.2518 18.9L94.9274 19.2Z" fill="#8D9C7C"/>
<path d="M178.207 21.9L176.533 21V20.85L178.207 21.9Z" fill="#899877"/>
<path d="M196.516 23.85L228.17 19.95L196.516 23.85Z" fill="#8D9C7C"/>
<path d="M189.421 33.53C164.5 33.53 132.954 32.51 106.587 31.65C128.244 28.65 166.547 26.4 196.528 23.85L223.183 24.15L208.199 24.9C206.007 25.16 197.431 25.57 196.576 25.94C196.034 26.18 198.684 26.41 208.26 26.57C217.835 26.73 234.325 26.84 261.499 26.84L289.805 26.54C258.162 27.74 229.844 29.09 206.525 31.34L228.182 32.54L214.848 32.99C209.597 33.27 203.381 33.43 196.504 33.49C194.215 33.5 191.866 33.51 189.433 33.52" fill="#97A487"/>
<path d="M275.038 36.14C261.27 36.13 247.514 36.11 233.747 36.1C192.468 36.01 151.19 35.81 109.911 35.55C97.4086 35.21 84.9058 35.04 72.4271 35.04C68.2595 35.06 64.1039 35.08 59.9484 35.1C46.6145 31.5 34.9428 27.9 26.6317 24L73.2582 21C114.898 21.45 154.864 23.25 196.504 23.85C166.523 26.4 128.22 28.65 106.563 31.65C132.942 32.51 164.488 33.53 189.397 33.53H189.409C191.83 33.52 194.179 33.51 196.467 33.5C203.345 33.44 209.56 33.28 214.812 33L228.146 32.55C242.492 33.29 257.933 33.67 274.086 33.87C290.275 34.07 307.15 34.09 324.374 34.09C327.241 34.09 330.132 34.09 333.011 34.09C342.261 34.1 351.596 34.12 360.919 34.13C370.519 34.17 380.131 34.23 389.695 34.36L394.693 35.71C354.8 36.03 314.907 36.15 275.001 36.15" fill="#A4B097"/>
<path d="M275.038 36.14C314.931 36.14 354.824 36.01 394.73 35.7C354.836 36.01 314.943 36.14 275.038 36.14Z" fill="#919F80"/>
<path d="M360.943 34.12C351.62 34.11 342.285 34.09 333.035 34.08C330.156 34.08 327.265 34.08 324.398 34.08C307.186 34.08 290.299 34.07 274.11 33.86C290.299 34.06 307.174 34.07 324.398 34.07C327.265 34.07 330.144 34.07 333.035 34.07C342.285 34.08 351.608 34.1 360.943 34.11" fill="#919F80"/>
<path d="M189.433 33.53H189.421C191.866 33.52 194.203 33.51 196.492 33.5C194.203 33.51 191.854 33.52 189.433 33.53Z" fill="#899977"/>
<path d="M109.911 35.55L59.9484 35.1C64.104 35.08 68.2595 35.06 72.4271 35.04C84.9058 35.04 97.4087 35.21 109.911 35.55Z" fill="#9EAB8F"/>
<path d="M109.911 35.55L59.9484 35.1L109.911 35.55Z" fill="#899877"/>
</g>
</svg>
