<svg width="835" height="36" viewBox="0 0 835 36" fill="none" xmlns="http://www.w3.org/2000/svg">
<path opacity="0.8" d="M381.414 35.24L388.063 34.94L396.41 34.04L398.073 32.84L374.753 31.19L388.063 31.64L368.093 29.99L393.074 31.04V30.29L384.751 29.69C364.768 29.09 343.111 29.09 324.79 28.19C333.33 28 341.882 27.93 350.495 27.93C368.707 27.93 387.16 28.24 406.408 28.34L413.069 28.04C388.063 27.14 359.769 26.69 341.449 24.74C343.28 24.74 345.062 24.73 346.821 24.72C381.258 24.72 405.312 27.3 440.267 27.3C441.182 27.3 442.122 27.3 443.049 27.3C426.391 25.95 399.747 24.9 383.089 23.55C409.744 24.75 434.726 26.25 459.707 27.75H463.044C496.349 28.45 526.329 29.07 556.321 29.7C604.598 30.9 649.586 32.1 696.225 33.75L659.584 30.9C682.903 29.4 709.547 29.85 731.204 29.25L737.853 29.1C709.547 26.7 672.918 25.8 644.6 24C664.594 24.45 681.241 25.8 704.548 25.95L697.899 25.35C719.544 25.65 737.853 26.55 756.197 27.45C776.18 25.5 799.499 23.55 822.819 23.4H834.478L809.497 22.5L817.82 22.95L782.841 21.3L751.199 18.75L787.828 19.2L777.854 18.15C759.534 17.7 742.875 17.1 729.554 15.9L769.519 15.45L792.839 13.5L789.514 10.95C775.361 8.97001 752.295 7.79 724.543 7.79C722.905 7.79 721.23 7.79 719.556 7.8L721.206 10.05L712.895 8.55L697.911 10.2L682.915 9.9C674.592 11.25 663.751 11.63 652.104 11.63C640.456 11.63 627.953 11.25 616.294 11.1L626.291 11.85C620.967 12.81 614.559 13.12 607.85 13.12C597.756 13.12 586.988 12.42 577.99 12.15L558.14 10.78C557.514 10.78 556.935 10.8 556.345 10.8L557.08 10.7L556.345 10.65L528.027 10.2L513.043 9.3L523.041 9.75L514.717 8.85001L531.376 9.60001L498.059 7.65L486.399 7.2L489.736 7.05L474.74 5.85001L443.097 4.2L421.428 4.65L439.773 4.05L449.758 3.75L416.441 3.3L418.104 2.55C404.77 2.1 388.111 1.8 371.453 1.65H369.803L341.485 2.25L366.466 1.35001L364.804 0C348.76 0.12 331.644 0.920006 314.323 0.920006C310.059 0.920006 305.783 0.87 301.507 0.75L304.82 1.05L279.85 1.2C265.697 1.79 251.966 2.44 238.584 3.13C190.452 5.62 147.884 8.79 116.615 12.9C139.934 12 163.254 11.1 183.237 9.75C213.241 8.4 243.257 7.78 274.502 7.78C277.947 7.78 281.38 7.8 284.837 7.8L249.858 10.2H251.52L243.197 11.1L249.858 10.2C196.57 10.2 156.593 13.5 108.292 13.65L116.615 12.9C88.2851 13.8 59.9912 14.7 31.6732 15.6L0.018711 19.5L26.6745 19.8L11.6904 20.55C9.4982 20.81 0.922103 21.22 0.0669016 21.59C-0.475127 21.83 2.17479 22.06 11.7506 22.22C21.3265 22.38 37.8162 22.49 64.9899 22.49L93.2959 22.19C61.6534 23.39 33.3354 24.74 10.0161 26.99L31.6732 28.19C53.9928 27.53 77.1073 27.23 100.258 27.23C115.615 27.23 130.997 27.37 146.198 27.62C191.849 28.4 235.97 30.29 273.165 32.99C286.487 33.89 306.482 34.34 326.453 34.64H329.789L319.792 33.89L334.776 34.49L311.457 32.09L341.437 34.19L346.435 33.89L321.43 32.39L349.76 33.74L356.433 33.14L381.414 35.24ZM136.562 20.69L143.223 20.54L149.884 20.24L156.557 20.09L162.868 19.81C163.097 19.81 163.314 19.79 163.519 19.79L169.879 19.65L176.539 19.35L183.2 19.2L189.873 18.9L196.534 18.6L201.533 18.45L208.194 18.15L214.867 17.85L221.516 17.55L226.527 17.25L233.188 16.95L238.174 16.5C212.53 16.9 190.608 17.98 168.915 19.09L166.566 19.2L164.783 19.31C162.134 19.45 159.46 19.58 156.798 19.72L154.894 19.8L148.246 20.1L144.536 20.32C141.886 20.45 139.26 20.57 136.586 20.7M26.6625 19.8C29.5533 19.81 32.5043 19.82 35.4915 19.84C37.5151 19.83 39.5868 19.82 41.6465 19.8H48.3195L54.9684 19.65L63.3157 19.5L67.3026 19.32C70.9161 19.2 74.5296 19.06 78.1552 18.9H78.2997L84.9607 18.59L78.2997 18.89H78.2395C80.4799 18.79 82.7082 18.69 84.9607 18.59C82.2626 18.74 79.3115 18.84 76.3123 18.93L71.6147 19.04L63.3036 19.19L60.6778 19.25C58.1122 19.28 55.5104 19.31 52.8967 19.34H48.3195L43.5617 19.45C37.6958 19.53 31.9623 19.62 26.6625 19.79M721.182 10.04V10.49L727.855 10.94L721.182 10.04Z" fill="#D9D3DD"/>
</svg>
