<svg width="29" height="48" viewBox="0 0 29 48" fill="none" xmlns="http://www.w3.org/2000/svg">
<path d="M1.44125 1.33092C0.588189 2.17405 0.109373 3.31458 0.109373 4.50342C0.109373 5.69226 0.588189 6.83279 1.44125 7.67592L17.655 23.8309L1.44125 39.7609C0.588191 40.6041 0.109375 41.7446 0.109375 42.9334C0.109375 44.1223 0.588191 45.2628 1.44125 46.1059C1.86703 46.5277 2.3736 46.8625 2.93174 47.0909C3.48987 47.3194 4.08852 47.437 4.69316 47.437C5.29779 47.437 5.89644 47.3194 6.45458 47.0909C7.01271 46.8625 7.51928 46.5277 7.94507 46.1059L27.3649 27.0259C27.7942 26.6076 28.1349 26.1099 28.3675 25.5615C28.6 25.0131 28.7197 24.425 28.7197 23.8309C28.7197 23.2369 28.6 22.6487 28.3675 22.1003C28.1349 21.552 27.7942 21.0543 27.3649 20.6359L7.94506 1.33092C7.51928 0.909141 7.01271 0.574367 6.45458 0.345909C5.89644 0.11745 5.29779 -0.000175699 4.69316 -0.000175673C4.08852 -0.000175647 3.48987 0.117451 2.93173 0.345909C2.3736 0.574367 1.86703 0.909141 1.44125 1.33092Z" fill="#757575"/>
</svg>
