<svg width="29" height="48" viewBox="0 0 29 48" fill="none" xmlns="http://www.w3.org/2000/svg">
<path d="M27.6349 46.1061C28.488 45.263 28.9668 44.1224 28.9668 42.9336C28.9668 41.7448 28.488 40.6042 27.6349 39.7611L11.4212 23.6061L27.6349 7.67609C28.488 6.83296 28.9668 5.69243 28.9668 4.50359C28.9668 3.31476 28.488 2.17422 27.6349 1.33109C27.2091 0.909314 26.7026 0.574539 26.1444 0.34608C25.5863 0.117621 24.9876 -1.7089e-07 24.383 -1.96857e-07C23.7784 -2.22824e-07 23.1797 0.117621 22.6216 0.34608C22.0635 0.574539 21.5569 0.909314 21.1311 1.33109L1.71126 20.4111C1.28197 20.8294 0.941233 21.3271 0.708705 21.8755C0.476176 22.4239 0.356458 23.012 0.356458 23.6061C0.356458 24.2001 0.476176 24.7883 0.708705 25.3367C0.941233 25.8851 1.28197 26.3828 1.71126 26.8011L21.1311 46.1061C21.5569 46.5279 22.0635 46.8626 22.6216 47.0911C23.1797 47.3196 23.7784 47.4372 24.383 47.4372C24.9876 47.4372 25.5863 47.3196 26.1444 47.0911C26.7026 46.8626 27.2091 46.5279 27.6349 46.1061Z" fill="#757575"/>
</svg>
